<svg xmlns="http://www.w3.org/2000/svg" viewBox="0 0 24 24" fill="none" role="img" aria-label="Amazon">
  <path fill="#ff9900" d="M18.3 16.3c-2.2 1.62-5.4 2.48-8.15 2.48-3.86 0-7.33-1.43-9.96-3.8-.2-.19-.02-.44.23-.3 2.83 1.65 6.34 2.64 9.96 2.64 2.44 0 5.12-.5 7.59-1.55.37-.16.68.24.33.53Z"/>
  <path fill="#ff9900" d="M19.22 15.24c-.28-.36-1.86-.17-2.57-.09-.21.03-.25-.16-.05-.3 1.26-.89 3.32-.63 3.56-.33.24.3-.07 2.37-1.24 3.36-.18.15-.35.07-.27-.13.26-.65.85-2.15.57-2.51Z"/>
  <path fill="#232f3e" d="M16.72 8.5V7.6c0-.13.1-.22.22-.22h4.05c.13 0 .23.09.23.22v.77c0 .13-.11.3-.3.56l-2.1 3c.78-.02 1.6.1 2.31.5.16.09.2.22.22.35v.96c0 .13-.15.29-.3.2-1.24-.65-2.9-.72-4.28.01-.14.08-.29-.08-.29-.21v-.91c0-.15 0-.4.15-.62l2.43-3.49h-2.12c-.13 0-.23-.09-.23-.22Z"/>
  <path fill="#232f3e" d="M6.9 14.02H5.67a.23.23 0 0 1-.22-.21V7.61c0-.12.1-.22.23-.22h1.15c.12 0 .22.1.22.21v.81h.03c.3-.8.86-1.17 1.62-1.17.77 0 1.25.37 1.6 1.17.3-.8.98-1.17 1.7-1.17.52 0 1.08.21 1.42.69.39.53.31 1.3.31 1.98v3.9c0 .12-.1.22-.23.22h-1.23a.23.23 0 0 1-.22-.21V10.4c0-.27.02-.94-.03-1.19-.09-.42-.36-.54-.71-.54-.3 0-.6.2-.73.51-.12.32-.11.85-.11 1.22v3.28c0 .12-.1.22-.23.22h-1.23a.23.23 0 0 1-.22-.21V10.4c0-.5.08-1.24-.54-1.24-.63 0-.6.72-.6 1.24v3.28c0 .12-.11.22-.23.22Z"/>
</svg>
