<svg xmlns="http://www.w3.org/2000/svg" viewBox="0 0 24 24" fill="none" role="img" aria-label="ByteDance">
  <path fill="#25f4ee" d="M8.9 9.9v-.86a5.4 5.4 0 0 0-.75-.05 5.32 5.32 0 0 0-2 10.25 5.32 5.32 0 0 1 2.75-9.34Z"/>
  <path fill="#fe2c55" d="M17.7 8.02v2.55a6.28 6.28 0 0 1-3.66-1.18v5.35a5.35 5.35 0 1 1-5.35-5.35c.19 0 .37.01.55.03v2.63a2.72 2.72 0 1 0 1.9 2.6V2.5h2.6a3.62 3.62 0 0 0 3.96 3.53v1.99Z"/>
  <path fill="#000" d="M16.24 6.53a3.62 3.62 0 0 1-1.7-4.03h-1.14v12.24a2.72 2.72 0 1 1-2.72-2.72c.16 0 .31.02.46.05v-2.66a5.35 5.35 0 1 0 4.16 8.24 5.35 5.35 0 0 0 .89-2.96V9.4a6.28 6.28 0 0 0 3.66 1.17V7.92a3.6 3.6 0 0 1-3.02-1.39Z"/>
</svg>
