<svg xmlns="http://www.w3.org/2000/svg" viewBox="0 0 24 24" fill="none" role="img" aria-label="Cohere">
  <path fill="#39594c" d="M8.4 13.9c.62 0 1.86-.03 3.57-.74 1.99-.82 5.95-2.3 8.8-3.83 2-1.06 2.88-2.47 2.88-4.36A4.47 4.47 0 0 0 19.18.5H7.66A7.16 7.16 0 0 0 .5 7.66v.02a6.22 6.22 0 0 0 6.22 6.22H8.4Z"/>
  <path fill="#d18ee2" d="M9.86 19.34a4.16 4.16 0 1 1 8.32 0v.18a4.16 4.16 0 1 1-8.32 0v-.18Z"/>
  <path fill="#ff7759" d="M3.85 14.6A3.85 3.85 0 0 0 0 18.45v1.05a3.85 3.85 0 1 0 7.7 0v-1.05a3.85 3.85 0 0 0-3.85-3.85Z"/>
</svg>
