<svg xmlns="http://www.w3.org/2000/svg" viewBox="0 0 24 24" fill="none" role="img" aria-label="Google">
  <path fill="#4285f4" d="M21.6 12.23c0-.68-.06-1.34-.18-1.96H12v3.71h5.38a4.6 4.6 0 0 1-1.99 3.02v2.5h3.22c1.88-1.74 2.99-4.3 2.99-7.27Z"/>
  <path fill="#34a853" d="M12 21.75c2.7 0 4.96-.9 6.61-2.42l-3.22-2.5c-.9.6-2.04.95-3.39.95-2.6 0-4.81-1.76-5.6-4.12H3.08v2.58A9.99 9.99 0 0 0 12 21.75Z"/>
  <path fill="#fbbc05" d="M6.4 13.66a5.99 5.99 0 0 1 0-3.82V7.26H3.08a10 10 0 0 0 0 8.98l3.32-2.58Z"/>
  <path fill="#ea4335" d="M12 6.16c1.47 0 2.78.5 3.82 1.5l2.85-2.85C16.95 3.2 14.7 2.25 12 2.25a9.99 9.99 0 0 0-8.92 5.01l3.32 2.58c.79-2.36 3-4.12 5.6-4.12Z"/>
</svg>
