<svg xmlns="http://www.w3.org/2000/svg" viewBox="0 0 24 24" fill="none" role="img" aria-label="Meta">
  <path fill="#0064e0" d="M3.2 8.4C4.05 6.7 5.32 5.6 6.9 5.6c1.28 0 2.36.75 3.48 2.4.79 1.16 1.62 2.75 2.34 4.2.72-1.45 1.55-3.04 2.34-4.2 1.12-1.65 2.2-2.4 3.48-2.4 1.58 0 2.85 1.1 3.7 2.8.6 1.2.96 2.68.96 4.1 0 2.98-1.5 5.1-3.86 5.1-1.6 0-2.78-.86-4.02-3.02-.3-.52-.62-1.13-.95-1.78-.33.65-.65 1.26-.95 1.78-1.24 2.16-2.42 3.02-4.02 3.02-.62 0-1.18-.15-1.67-.43v-2.5c.44.42.94.66 1.45.66.86 0 1.36-.42 2.32-2.06.6-1.03 1.3-2.5 1.9-3.72-.62-1.28-1.4-2.86-2.06-3.86-.66-1-1.1-1.24-1.6-1.24-.72 0-1.44.66-2.06 1.78v-.03Z"/>
  <path fill="#0082fb" d="M6.9 5.6C5.32 5.6 4.05 6.7 3.2 8.4c-.6 1.2-.96 2.68-.96 4.1 0 2.98 1.5 5.1 3.86 5.1.4 0 .76-.06 1.11-.19v-2.5c-.28.27-.6.42-.96.42-1.02 0-1.5-1.24-1.5-3.13 0-1.9.5-3.36 1.6-3.36.35 0 .68.16 1.03.5V6.53C7.9 5.92 7.42 5.6 6.9 5.6Z"/>
</svg>
