<svg xmlns="http://www.w3.org/2000/svg" viewBox="0 0 24 24" fill="none" role="img" aria-label="OpenAI">
  <path fill="#10a37f" d="M20.56 9.83a5.02 5.02 0 0 0-.43-4.12 5.08 5.08 0 0 0-5.47-2.44A5.03 5.03 0 0 0 10.87 1.5a5.08 5.08 0 0 0-4.84 3.52 5.02 5.02 0 0 0-3.36 2.44 5.08 5.08 0 0 0 .62 5.95 5.02 5.02 0 0 0 .43 4.12 5.08 5.08 0 0 0 5.47 2.44 5.02 5.02 0 0 0 3.79 1.69 5.08 5.08 0 0 0 4.84-3.53 5.02 5.02 0 0 0 3.36-2.44 5.08 5.08 0 0 0-.62-5.95Zm-7.55 10.55a3.77 3.77 0 0 1-2.42-.87l.12-.07 4.02-2.32a.65.65 0 0 0 .33-.57v-5.67l1.7.98v4.7a3.79 3.79 0 0 1-3.75 3.82Zm-8.1-3.46a3.77 3.77 0 0 1-.45-2.53l.12.07 4.02 2.32c.2.12.45.12.66 0l4.91-2.83v1.96l-.01.01-4.06 2.35a3.79 3.79 0 0 1-5.19-1.4Zm-1.06-8.79a3.77 3.77 0 0 1 1.97-1.66v4.78c0 .24.13.46.33.58l4.9 2.83-1.7.98-4.02-2.32a3.79 3.79 0 0 1-1.48-5.19Zm13.96 3.25-4.91-2.85 1.7-.98 4.02 2.32a3.78 3.78 0 0 1-.58 6.82v-4.78a.66.66 0 0 0-.33-.53Zm1.69-2.54-.12-.07-4.01-2.34a.66.66 0 0 0-.67 0l-4.9 2.83V6.99l4.06-2.34a3.78 3.78 0 0 1 5.62 3.92Zm-10.64 3.49-1.7-.98V6.3a3.78 3.78 0 0 1 6.2-2.9l-.12.07-4.02 2.32a.65.65 0 0 0-.33.57l-.01 5.66Zm.92-1.99L12 8.71l2.19 1.26v2.52L12 13.75l-2.19-1.26v-2.52Z"/>
</svg>
