<svg width="32" height="32" viewBox="0 0 32 32" fill="none" xmlns="http://www.w3.org/2000/svg">
  <defs>
    <linearGradient id="bg" x1="0" y1="0" x2="32" y2="32">
      <stop stop-color="#1e1b4b"/>
      <stop offset="1" stop-color="#312e81"/>
    </linearGradient>
    <linearGradient id="sh" x1="6" y1="3" x2="26" y2="29">
      <stop stop-color="#818cf8"/>
      <stop offset="0.55" stop-color="#6366f1"/>
      <stop offset="1" stop-color="#a78bfa"/>
    </linearGradient>
    <linearGradient id="iris" x1="12" y1="11" x2="20" y2="19">
      <stop stop-color="#e0e7ff"/>
      <stop offset="1" stop-color="#a5b4fc"/>
    </linearGradient>
    <clipPath id="sc">
      <path d="M16 5 7.5 8v6.4c0 5.5 3.6 9.7 8.5 11.8 4.9-2.1 8.5-6.3 8.5-11.8V8L16 5Z"/>
    </clipPath>
  </defs>
  <rect width="32" height="32" rx="8" fill="url(#bg)"/>
  <!-- kalkan (veil + koruma) -->
  <path d="M16 5 7.5 8v6.4c0 5.5 3.6 9.7 8.5 11.8 4.9-2.1 8.5-6.3 8.5-11.8V8L16 5Z" fill="url(#sh)"/>
  <!-- nöbetçi göz -->
  <ellipse cx="16" cy="13.4" rx="4.5" ry="3.1" fill="#ffffff" fill-opacity="0.95"/>
  <circle cx="16" cy="13.4" r="2.1" fill="url(#iris)"/>
  <circle cx="16" cy="13.4" r="0.95" fill="#312e81"/>
  <circle cx="16.9" cy="12.6" r="0.45" fill="#eef2ff"/>
  <!-- peçe (veil) — dithering perdesi -->
  <g clip-path="url(#sc)" stroke="#ffffff" stroke-linecap="round">
    <path d="M6 17.6h20" stroke-opacity="0.5" stroke-width="1"/>
    <path d="M6 20.1h20" stroke-opacity="0.36" stroke-width="0.9"/>
    <path d="M6 22.5h20" stroke-opacity="0.22" stroke-width="0.8"/>
  </g>
</svg>
